<svg xmlns="http://www.w3.org/2000/svg" version="1.1" xmlns:xlink="http://www.w3.org/1999/xlink" xmlns:svgjs="http://svgjs.dev/svgjs" width="1500" height="1500" viewBox="0 0 1500 1500"><rect width="1500" height="1500" fill="#ffffff"></rect><g transform="matrix(0.6666666666666666,0,0,0.6666666666666666,249.39393939393938,564.7713446721872)"><svg viewBox="0 0 396 146" data-background-color="#008080" preserveAspectRatio="xMidYMid meet" height="553" width="1500" xmlns="http://www.w3.org/2000/svg" xmlns:xlink="http://www.w3.org/1999/xlink"><g id="tight-bounds" transform="matrix(1,0,0,1,0.2400000000000091,0.3545669381392571)"><svg viewBox="0 0 395.52 145.2908661237215" height="145.2908661237215" width="395.52"><g><svg viewBox="0 0 665.3898610725953 244.42523570282182" height="145.2908661237215" width="395.52"><g transform="matrix(1,0,0,1,0,28.289207099611843)"><svg viewBox="0 0 395.52 187.84682150359814" height="187.84682150359814" width="395.52"><g id="textblocktransform"><svg viewBox="0 0 395.52 187.84682150359814" height="187.84682150359814" width="395.52" id="textblock"><g><svg viewBox="0 0 395.52 107.7555578398287" height="107.7555578398287" width="395.52"><g transform="matrix(1,0,0,1,0,0)"><svg width="395.52" viewBox="3.15 -35.4 131.36136901855468 35.79" height="107.7555578398287" data-palette-color="#ffffff"><g transform="matrix(1,0,0,1,0,0)"><g><svg width="16.487579345703125" viewBox="1.78 -36.36 74.21 36.36" height="8.078125" data-palette-color="#ffffff" id="scriptelement" x="118.02378967285156" y="-35.4"><path d="M12.91-30.02L1.78-30.02 1.78-36.36 31.64-36.36 31.64-30.02 20.51-30.02 20.51 0 12.91 0 12.91-30.02ZM36.57 0L36.57-36.36 46.06-36.36 56.07-11.93 56.5-11.93 66.51-36.36 75.99-36.36 75.99 0 68.53 0 68.53-23.67 68.23-23.67 58.82-0.18 53.74-0.18 44.33-23.76 44.03-23.76 44.03 0 36.57 0Z" opacity="1" transform="matrix(1,0,0,1,0,0)" fill="#000000" class="undefined-123" data-fill-palette-color="primary" id="tk-123"></path></svg></g></g><path d="M4.92-4.5Q4.1-5.88 3.63-7.76 3.15-9.64 3.15-12.67 3.15-15.7 4.46-18.25 5.76-20.8 7.86-22.44L7.86-22.44Q11.94-25.59 17.99-25.59L17.99-25.59Q21.14-25.59 22.75-25.44L22.75-25.44Q22.75-25.44 25.12-25.2L25.12-25.2 25.12 0 20.73 0 20.53-2.91Q19.07-0.95 16.06 0L16.06 0Q14.92 0.37 13.71 0.37 12.5 0.37 11.33 0.12 10.16-0.12 9-0.68 7.84-1.25 6.79-2.19 5.74-3.13 4.92-4.5ZM20.24-6.62L20.24-21.61Q18.68-21.8 17.13-21.8 15.58-21.8 13.82-21.25 12.06-20.7 10.82-19.53L10.82-19.53Q8.23-17.09 8.23-12.08L8.23-12.08Q8.23-7.35 10.45-5.08L10.45-5.08Q12.13-3.39 14.5-3.39L14.5-3.39Q17.55-3.39 19.53-5.62L19.53-5.62Q20.02-6.18 20.24-6.62L20.24-6.62ZM48.95-25.34L48.95-20.73Q47.6-21.12 45.74-21.12 43.87-21.12 42.67-20.74 41.48-20.36 40.57-19.82L40.57-19.82Q38.91-18.85 38.16-17.63L38.16-17.63 38.16 0 33.27 0 33.27-25.2 37.96-25.2 38.16-21.7Q39.99-24 43.5-25.15L43.5-25.15Q44.77-25.59 46.41-25.59 48.04-25.59 48.95-25.34L48.95-25.34ZM59.44-32.53Q59.44-31.13 58.53-30.38 57.61-29.64 56.25-29.64 54.88-29.64 53.99-30.38 53.1-31.13 53.1-32.53 53.1-33.94 53.99-34.67 54.88-35.4 56.25-35.4 57.61-35.4 58.53-34.67 59.44-33.94 59.44-32.53ZM53.73 0L53.73-25.2 58.61-25.2 58.61 0 53.73 0ZM64.64-12.65L64.64-12.65Q64.64-18.58 68.43-22.27L68.43-22.27Q71.97-25.71 77.19-25.71L77.19-25.71Q82.32-25.71 85.76-22.27L85.76-22.27Q89.42-18.6 89.42-12.65L89.42-12.65Q89.42-6.71 85.73-3.08L85.73-3.08Q82.24 0.39 77.17 0.39L77.17 0.39Q72.01 0.39 68.43-3.08L68.43-3.08Q64.64-6.71 64.64-12.65ZM69.72-12.65L69.72-12.65Q69.72-6.4 73.72-4.15L73.72-4.15Q75.14-3.37 77.12-3.37 79.09-3.37 80.46-4.16 81.83-4.96 82.71-6.25L82.71-6.25Q84.34-8.74 84.34-12.65L84.34-12.65Q84.34-18.85 80.41-21.14L80.41-21.14Q79.05-21.95 77.14-21.95 75.24-21.95 73.83-21.15 72.43-20.36 71.53-19.07L71.53-19.07Q69.72-16.53 69.72-12.65ZM104.48-3.86L104.48-3.86Q105.29-3.56 106.92-3.56 108.56-3.56 109.66-3.96L109.66-3.96 109.66-0.05Q109.15 0.07 108.17 0.1L108.17 0.1 106.63 0.15Q106.12 0.15 105.85 0.15L105.85 0.15Q101.14 0.15 98.89-2.93L98.89-2.93Q97.08-5.42 97.08-9.52L97.08-9.52 97.08-21.46 93.47-21.46 93.47-23.75 97.08-25.2 98.26-31.45 101.97-31.45 101.97-25.2 109.78-25.2 109.78-21.46 101.97-21.46 101.97-9.55Q101.97-4.76 104.48-3.86Z" opacity="1" transform="matrix(1,0,0,1,0,0)" fill="#000000" class="wordmark-text-0" data-fill-palette-color="primary" id="text-0"></path></svg></g></svg></g><g transform="matrix(1,0,0,1,88.85178824854827,133.1940589124241)"><svg viewBox="0 0 232.209792 54.65276259117403" height="54.65276259117403" width="232.209792"><g transform="matrix(1,0,0,1,0,0)"><svg width="232.209792" viewBox="3.3 -33.8 180.13 42.4" height="54.65276259117403" data-palette-color="#ffffff"><path d="M15.33 0.53L15.33 0.53Q13.08 0.53 11.43-0.23 9.78-0.98 8.75-2.38 7.73-3.78 7.38-5.63L7.38-5.63 6.05-5.63 7.23-9.43Q7.33-7.23 8.21-5.76 9.1-4.3 10.63-3.58 12.15-2.85 14.08-2.85L14.08-2.85Q17.15-2.85 18.79-4.65 20.43-6.45 20.43-9.93L20.43-9.93 20.43-14.6Q20.43-18.05 18.8-19.85 17.18-21.65 14.08-21.65L14.08-21.65Q12.23-21.65 10.8-20.93 9.38-20.2 8.44-18.95 7.5-17.7 7.15-16.1L7.15-16.1 6.15-18.93 7.33-18.93Q7.73-20.6 8.69-21.96 9.65-23.33 11.34-24.14 13.03-24.95 15.5-24.95L15.5-24.95Q19.9-24.95 22.2-22.21 24.5-19.48 24.5-14.28L24.5-14.28 24.5-10.23Q24.5-4.98 22.19-2.23 19.88 0.53 15.33 0.53ZM7.33 8.6L3.3 8.6 3.3-24.4 7.35-24.4 7.18-18.53 7.23-17.28 7.23-7 7.2-6.18 7.33 0.68 7.33 8.6ZM34.3 0L30.27 0 30.27-33.13 34.3-33.13 34.3 0ZM59.52 0L55.5 0 55.67-5.93 55.52-6.55 55.52-14.33 55.55-15.75Q55.55-18.73 54.03-20.15 52.52-21.58 49.24-21.58L49.24-21.58Q46.62-21.58 44.43-20.83 42.24-20.08 40.55-19.07L40.55-19.07 40.92-22.53Q41.87-23.1 43.18-23.66 44.49-24.23 46.18-24.6 47.87-24.98 49.89-24.98L49.89-24.98Q52.52-24.98 54.36-24.34 56.2-23.7 57.33-22.5 58.47-21.3 59-19.6 59.52-17.9 59.52-15.8L59.52-15.8 59.52 0ZM47.09 0.53L47.09 0.53Q43.47 0.53 41.53-1.24 39.59-3 39.59-6.28L39.59-6.28 39.59-7Q39.59-10.38 41.68-12.04 43.77-13.7 48.32-14.35L48.32-14.35 56.05-15.45 56.27-12.5 48.82-11.43Q46.02-11.03 44.82-10.06 43.62-9.1 43.62-7.23L43.62-7.23 43.62-6.83Q43.62-4.9 44.81-3.88 45.99-2.85 48.37-2.85L48.37-2.85Q50.47-2.85 51.97-3.58 53.47-4.3 54.39-5.53 55.32-6.75 55.64-8.25L55.64-8.25 56.27-5.5 55.5-5.5Q55.14-3.9 54.18-2.53 53.22-1.15 51.49-0.31 49.77 0.53 47.09 0.53ZM74.59 0.5L74.59 0.5Q71.77 0.5 70.04-0.35 68.32-1.2 67.54-2.93 66.77-4.65 66.77-7.23L66.77-7.23 66.77-22.63 70.77-22.63 70.77-7.7Q70.77-5.3 71.87-4.16 72.97-3.03 75.57-3.03L75.57-3.03Q77.04-3.03 78.41-3.35 79.77-3.68 80.97-4.28L80.97-4.28 80.59-0.8Q79.42-0.2 77.84 0.15 76.27 0.5 74.59 0.5ZM80.34-20.8L62.77-20.8 62.77-24.05 80.72-24.05 80.34-20.8ZM70.67-23.65L66.79-23.65 66.77-30.5 70.84-31.03 70.67-23.65ZM93.69-33.8L93.69-33.8Q95.57-33.8 97.05-33.46 98.54-33.13 99.79-32.63L99.79-32.63 100.19-29.45Q98.97-29.9 97.73-30.16 96.49-30.43 94.94-30.43L94.94-30.43Q93.07-30.43 91.93-29.94 90.79-29.45 90.3-28.56 89.82-27.68 89.82-26.43L89.82-26.43 89.82-26.3Q89.82-25.43 90.04-24.64 90.27-23.85 90.54-23.2L90.54-23.2 87.82-23.1 87.82-23.6Q87.04-24.2 86.45-25.28 85.87-26.35 85.87-27.78L85.87-27.78 85.87-27.9Q85.87-30.58 87.77-32.19 89.67-33.8 93.69-33.8ZM90.72 0L86.69 0 86.69-22.23 90.72-22.23 90.72 0ZM99.72-20.25L82.67-20.25 82.67-23.48 88.24-23.45 89.89-23.48 100.09-23.48 99.72-20.25ZM113.96 0.63L113.96 0.63Q108.71 0.63 106-2.21 103.29-5.05 103.29-10.38L103.29-10.38 103.29-14.1Q103.29-19.4 106.01-22.23 108.74-25.05 113.96-25.05L113.96-25.05Q119.21-25.05 121.93-22.23 124.64-19.4 124.64-14.1L124.64-14.1 124.64-10.38Q124.64-5.05 121.93-2.21 119.21 0.63 113.96 0.63ZM113.96-2.68L113.96-2.68Q117.21-2.68 118.9-4.6 120.59-6.53 120.59-10.15L120.59-10.15 120.59-14.33Q120.59-17.93 118.9-19.84 117.21-21.75 113.96-21.75L113.96-21.75Q110.74-21.75 109.04-19.84 107.34-17.93 107.34-14.33L107.34-14.33 107.34-10.15Q107.34-6.53 109.04-4.6 110.74-2.68 113.96-2.68ZM134.11-14.93L134.11-14.93 133.19-18.05 134.19-18.1Q134.99-21.2 136.94-22.99 138.89-24.78 142.11-24.78L142.11-24.78Q142.91-24.78 143.55-24.65 144.19-24.53 144.69-24.35L144.69-24.35 144.94-20.43Q144.31-20.63 143.55-20.75 142.79-20.88 141.86-20.88L141.86-20.88Q139.11-20.88 137.07-19.35 135.04-17.82 134.11-14.93ZM134.31 0L130.26 0 130.26-24.4 134.21-24.4 134.01-17.2 134.31-16.9 134.31 0ZM183.43 0L179.38 0 179.38-15.28Q179.38-17.2 178.9-18.61 178.41-20.03 177.3-20.8 176.18-21.58 174.31-21.58L174.31-21.58Q172.53-21.58 171.23-20.85 169.93-20.13 169.13-18.91 168.33-17.7 168.01-16.15L168.01-16.15 167.38-19.03 167.88-19.03Q168.28-20.6 169.23-21.95 170.18-23.3 171.81-24.13 173.43-24.95 175.83-24.95L175.83-24.95Q178.56-24.95 180.22-23.88 181.88-22.8 182.66-20.74 183.43-18.68 183.43-15.73L183.43-15.73 183.43 0ZM152.96 0L148.91 0 148.91-24.4 152.96-24.4 152.78-18.55 152.96-18.3 152.96 0ZM168.18 0L164.16 0 164.16-15.28Q164.16-17.2 163.67-18.61 163.18-20.03 162.08-20.8 160.98-21.58 159.11-21.58L159.11-21.58Q157.31-21.58 156.01-20.85 154.71-20.13 153.91-18.89 153.11-17.65 152.78-16.07L152.78-16.07 152.03-18.95 152.93-18.95Q153.31-20.6 154.23-21.96 155.16-23.33 156.75-24.14 158.33-24.95 160.61-24.95L160.61-24.95Q163.98-24.95 165.75-23.2 167.51-21.45 167.96-18.1L167.96-18.1Q168.08-17.6 168.13-17.01 168.18-16.43 168.18-15.85L168.18-15.85 168.18 0Z" opacity="1" transform="matrix(1,0,0,1,0,0)" fill="#000000" class="slogan-text-1" data-fill-palette-color="secondary" id="text-1"></path></svg></g></svg></g></svg></g></svg></g><g transform="matrix(1,0,0,1,420.95850107259537,0)"><svg viewBox="0 0 244.43135999999998 244.42523570282182" height="244.42523570282182" width="244.43135999999998"><g><svg xmlns="http://www.w3.org/2000/svg" xmlns:xlink="http://www.w3.org/1999/xlink" version="1.1" x="0" y="0" viewBox="7.279893330341158 7.28 85.44214077711491 85.44" enable-background="new 0 0 100 100" xml:space="preserve" height="244.42523570282182" width="244.43135999999998" class="icon-icon-0" data-fill-palette-color="accent" id="icon-0"><path d="M91.24 67.483L74.39 58.951 90.34 50.705C90.848 50.441 90.848 50.017 90.337 49.76L72.349 40.653 91.261 30.875C92.18 30.398 92.725 29.552 92.72 28.611 92.714 27.672 92.159 26.834 91.24 26.37L54.356 7.698C53.673 7.353 52.96 7.28 52.481 7.28 52.041 7.28 51.383 7.342 50.746 7.64L8.818 27.269C7.864 27.716 7.289 28.552 7.28 29.504 7.271 30.457 7.832 31.304 8.779 31.77L28.918 41.673 9.667 50.685C9.153 50.926 9.151 51.328 9.662 51.579L26.756 59.985 8.818 68.381C7.863 68.828 7.288 69.664 7.28 70.616 7.272 71.569 7.833 72.416 8.779 72.88L48.333 92.332C48.984 92.653 49.66 92.72 50.112 92.72 50.588 92.72 51.298 92.647 51.984 92.295L91.263 71.987C92.182 71.51 92.727 70.664 92.722 69.723 92.714 68.785 92.16 67.946 91.24 67.483M52.375 11.289A1 1 0 0 1 52.481 11.28C52.542 11.28 52.587 11.288 52.563 11.274L86.872 28.642 50.215 47.6C50.205 47.602 50.167 47.61 50.112 47.61L50.098 47.631 13.353 29.562zM50.22 88.71A0.5 0.5 0 0 1 50.111 88.72L50.099 88.743 13.355 70.673 30.73 62.539 48.331 71.194C48.983 71.515 49.659 71.583 50.111 71.583 50.588 71.583 51.299 71.509 51.981 71.157L70.615 61.524 86.87 69.754z" fill="#000000" data-fill-palette-color="accent"></path></svg></g></svg></g></svg></g><defs></defs></svg><rect width="395.52" height="145.2908661237215" fill="none" stroke="none" visibility="hidden"></rect></g></svg></g></svg>